<?xml version="1.0" encoding="UTF-8"?>
<svg width="87px" height="46px" viewBox="0 0 87 46" version="1.1" xmlns="http://www.w3.org/2000/svg" xmlns:xlink="http://www.w3.org/1999/xlink">
    <!-- Generator: sketchtool 53.2 (72643) - https://sketchapp.com -->
    <title>6ACD6E9D-D56A-4EA8-A6D6-0125A1E56B97</title>
    <desc>Created with sketchtool.</desc>
    <g id="Desktop" stroke="none" stroke-width="1" fill="none" fill-rule="evenodd">
        <g id="Zoe.ai---Desktop" transform="translate(-171.000000, -68.000000)">
            <g id="Menu" transform="translate(171.000000, 63.000000)">
                <g id="Group-2" transform="translate(0.000000, 5.000000)">
                    <path d="M45.3648059,7.72680662 L69.9482521,0.493892474 C73.6008853,-0.580781184 77.4426437,1.46107684 78.5954644,5.08980347 L86.3308263,29.4383555 C87.5013737,33.1228803 85.4633923,37.0586938 81.7788675,38.2292412 C81.731135,38.2444055 81.6832411,38.259057 81.6351941,38.2731934 L57.0517479,45.5061075 C53.3991147,46.5807812 49.5573563,44.5389232 48.4045356,40.9101965 L40.6691737,16.5616445 C39.4986263,12.8771197 41.5366077,8.94130616 45.2211325,7.77075882 C45.268865,7.75559454 45.3167589,7.74094296 45.3648059,7.72680662 Z" id="Rectangle-2-Copy-4" fill="#0018FF"></path>
                    <path d="M11,29.7 L0,29.7 L0,27.19658 L6.11325724,17.9729138 L0.144863916,17.9729138 L0.144863916,14.7 L10.8454785,14.7 L10.8454785,17.1931601 L4.73222125,26.4270862 L11,26.4270862 L11,29.7 Z M23,23.6744246 C23,25.5704272 22.5153305,27.0486733 21.545977,28.1092072 C20.5766235,29.169741 19.2198731,29.7 17.4756852,29.7 C15.802821,29.7 14.4720061,29.1578059 13.4832007,28.0734015 C12.4943953,26.9889971 12,25.5226861 12,23.6744246 C12,21.785242 12.4846695,20.317226 13.454023,19.2703325 C14.4233765,18.2234389 15.7833688,17.7 17.5340407,17.7 C18.6168637,17.7 19.5732349,17.9421118 20.403183,18.4263427 C21.2331312,18.9105736 21.8734136,19.6045138 22.3240495,20.5081841 C22.7746854,21.4118545 23,22.4672574 23,23.6744246 Z M16,23.6695946 C16,24.656086 16.1160703,25.4077677 16.3482143,25.9246622 C16.5803583,26.4415566 16.9702354,26.7 17.5178571,26.7 C18.0595265,26.7 18.4419632,26.4415566 18.6651786,25.9246622 C18.888394,25.4077677 19,24.656086 19,23.6695946 C19,22.68986 18.8869059,21.9500025 18.6607143,21.45 C18.4345227,20.9499975 18.0476218,20.7 17.5,20.7 C16.964283,20.7 16.5803583,20.9483083 16.3482143,21.4449324 C16.1160703,21.9415565 16,22.6831032 16,23.6695946 Z M29.9926874,29.7 C28.0956639,29.7 26.6226439,29.1867912 25.5735832,28.1603581 C24.5245225,27.133925 24,25.672729 24,23.7767263 C24,21.8193423 24.4859793,20.317226 25.4579525,19.2703325 C26.4299256,18.2234389 27.8174803,17.7 29.6206581,17.7 C31.3366935,17.7 32.662244,18.1552384 33.5973492,19.0657289 C34.5324544,19.9762194 35,21.2873742 35,22.9992327 L35,24.7792839 L27.9716636,24.7792839 C27.9984767,25.4271985 28.2314116,25.9352923 28.6704753,26.3035806 C29.1095391,26.6718688 29.7077963,26.8560102 30.4652651,26.8560102 C31.1557012,26.8560102 31.7908259,26.7895147 32.3706581,26.6565217 C32.9504904,26.5235287 33.5789119,26.296762 34.2559415,25.9762148 L34.2559415,28.8508951 C33.6392413,29.1714424 33.0024408,29.393094 32.345521,29.5158568 C31.6886012,29.6386195 30.9043312,29.7 29.9926874,29.7 Z M29.5178571,20.7 C29.1071408,20.7 28.7633942,20.8611095 28.4866071,21.1833333 C28.20982,21.5055572 28.0476193,22.0111077 28,22.7 L31,22.7 C30.9880952,22.0925896 30.8497037,21.6074092 30.5848214,21.2444444 C30.3199392,20.8814797 29.9642879,20.7 29.5178571,20.7 Z" id="Zoe" fill="#3B3B3B" fill-rule="nonzero"></path>
                    <path d="M62.8648887,29.6747441 L62.1385941,26.8750166 L57.3470676,26.8750166 L56.6005982,29.6747441 L52.222656,29.6747441 L57.0343574,14.6747441 L62.35043,14.6747441 L67.222656,29.6747441 L62.8648887,29.6747441 Z M61.222656,24.6747441 L60.614939,22.0038379 C60.4734592,21.4103002 60.3014351,20.6424223 60.0988618,19.7001813 C59.8962884,18.7579402 59.7628492,18.0828012 59.6985402,17.6747441 C59.6406621,18.0531244 59.5265154,18.6763296 59.3560965,19.5443784 C59.1856777,20.4124273 58.8078679,22.1225321 58.222656,24.6747441 L61.222656,24.6747441 Z M72.222656,29.6747441 L68.222656,29.6747441 L68.222656,18.6747441 L72.222656,18.6747441 L72.222656,29.6747441 Z M68.222656,15.1834146 C68.222656,14.6747415 68.3797057,14.2961326 68.6938098,14.0475765 C69.007914,13.7990203 69.5143192,13.6747441 70.2130406,13.6747441 C70.9117621,13.6747441 71.4213723,13.8019104 71.7418868,14.056247 C72.0624012,14.3105835 72.222656,14.6863023 72.222656,15.1834146 C72.222656,16.1776392 71.5527909,16.6747441 70.2130406,16.6747441 C68.8861109,16.6747441 68.222656,16.1776392 68.222656,15.1834146 Z" id="Ai" fill="#FFFFFF" fill-rule="nonzero"></path>
                </g>
            </g>
        </g>
    </g>
</svg>