<?xml version="1.0" encoding="UTF-8" standalone="no"?>
<svg
   xmlns:dc="http://purl.org/dc/elements/1.1/"
   xmlns:cc="http://creativecommons.org/ns#"
   xmlns:rdf="http://www.w3.org/1999/02/22-rdf-syntax-ns#"
   xmlns:svg="http://www.w3.org/2000/svg"
   xmlns="http://www.w3.org/2000/svg"
   viewBox="0 0 272.98666 62.080002"
   height="62.080002"
   width="272.98666"
   xml:space="preserve"
   id="svg2"
   version="1.1"><metadata
     id="metadata8"><rdf:RDF><cc:Work
         rdf:about=""><dc:format>image/svg+xml</dc:format><dc:type
           rdf:resource="http://purl.org/dc/dcmitype/StillImage" /></cc:Work></rdf:RDF></metadata><defs
     id="defs6"><clipPath
       id="clipPath24"
       clipPathUnits="userSpaceOnUse"><path
         id="path22"
         d="m 1277.9,310.59 h 123.926 v 56.1523 H 1277.9 Z" /></clipPath><linearGradient
       id="linearGradient30"
       spreadMethod="pad"
       gradientTransform="matrix(1629.19,0,0,-96.1523,136.211,386.743)"
       gradientUnits="userSpaceOnUse"
       y2="0"
       x2="0.94999999"
       y1="0"
       x1="0.050000001"><stop
         id="stop26"
         offset="0"
         style="stop-opacity:1;stop-color:#7fcc28" /><stop
         id="stop28"
         offset="1"
         style="stop-opacity:1;stop-color:#00adef" /></linearGradient><clipPath
       id="clipPath40"
       clipPathUnits="userSpaceOnUse"><path
         id="path38"
         d="m 1335.29,189.355 c -8.42,0 -12.82,3.946 -13.38,11.778 h -0.03 v 8.379 c 0,9.004 4.48,13.48 13.5,13.48 l 66.45,0.02 v 51.718 h -71.82 c -41.76,0 -70.08,-28.21 -70.08,-70.433 v -3.887 h 0.08 c 1.45,-40.371 29.28,-67.226 70.37,-67.226 h 71.45 v 56.171 h -66.54" /></clipPath><linearGradient
       id="linearGradient46"
       spreadMethod="pad"
       gradientTransform="matrix(1629.29,0,0,-181.548,136.138,294.731)"
       gradientUnits="userSpaceOnUse"
       y2="0"
       x2="0.94999999"
       y1="0"
       x1="0.050000001"><stop
         id="stop42"
         offset="0"
         style="stop-opacity:1;stop-color:#7fcc28" /><stop
         id="stop44"
         offset="1"
         style="stop-opacity:1;stop-color:#00adef" /></linearGradient><clipPath
       id="clipPath56"
       clipPathUnits="userSpaceOnUse"><path
         id="path54"
         d="m 1620.85,296.227 c 0,42.214 -28.34,70.515 -70.12,70.515 H 1434.46 V 310.59 h 107.75 c 8.97,0 13.46,-4.481 13.46,-13.477 V 274.73 h -69.1 c -41.75,0 -70.05,-28.21 -70.05,-70.433 v -3.887 h 0.07 c 1.45,-40.371 29.26,-67.226 70.33,-67.226 h 133.93 z m -129,-106.872 c -8.4,0 -12.81,3.946 -13.36,11.778 h -0.03 v 8.379 c 0,9.004 4.48,13.48 13.45,13.48 l 63.79,0.02 v -33.657 h -63.85" /></clipPath><linearGradient
       id="linearGradient62"
       spreadMethod="pad"
       gradientTransform="matrix(1629.3,0,0,-273.56,134.766,386.743)"
       gradientUnits="userSpaceOnUse"
       y2="0"
       x2="0.94999999"
       y1="0"
       x1="0.050000001"><stop
         id="stop58"
         offset="0"
         style="stop-opacity:1;stop-color:#7fcc28" /><stop
         id="stop60"
         offset="1"
         style="stop-opacity:1;stop-color:#00adef" /></linearGradient><clipPath
       id="clipPath72"
       clipPathUnits="userSpaceOnUse"><path
         id="path70"
         d="m 1712.94,367.113 c -42.23,0 -70.51,-28.3 -70.51,-70.527 V 133.184 h 65.12 v 164.3 c 0,8.985 4.51,13.477 13.48,13.477 h 45.11 v 56.152 h -53.2" /></clipPath><linearGradient
       id="linearGradient78"
       spreadMethod="pad"
       gradientTransform="matrix(1629.47,0,0,-273.931,134.595,387.114)"
       gradientUnits="userSpaceOnUse"
       y2="0"
       x2="0.94999999"
       y1="0"
       x1="0.050000001"><stop
         id="stop74"
         offset="0"
         style="stop-opacity:1;stop-color:#7fcc28" /><stop
         id="stop76"
         offset="1"
         style="stop-opacity:1;stop-color:#00adef" /></linearGradient><clipPath
       id="clipPath88"
       clipPathUnits="userSpaceOnUse"><path
         id="path86"
         d="m 1043.17,161.055 c 0,-42.227 27.91,-70.6058 69.69,-70.6058 h 55.67 c 9,0 13.45,-4.5508 13.45,-13.5156 v -8.9648 0 c -0.57,-7.8516 -4.96,-11.7969 -13.37,-11.7969 H 1056.52 V 0 h 118.8 c 41.12,0 68.95,26.875 70.41,67.2461 v 4.4531 c 0,42.2068 -28.28,70.4488 -70.03,70.4488 h -53.5 c -8.99,0 -13.48,4.434 -13.48,13.438 v 13.769 l 68.73,0.059 c 42.21,0 70.51,28.301 70.51,70.512 v 56.301 c 0,42.214 -28.3,70.515 -70.51,70.515 h -63.79 c -41.78,0 -70.49,-28.301 -70.49,-70.515 z m 65.59,136.058 c 0,8.996 4.45,13.477 13.44,13.477 h 47.15 c 9,0 13.47,-4.481 13.47,-13.477 v -58.086 c 0,-8.964 -4.47,-13.418 -13.47,-13.418 h -60.59 v 71.504" /></clipPath><linearGradient
       id="linearGradient94"
       spreadMethod="pad"
       gradientTransform="matrix(1629.2,0,0,-406.743,136.197,386.743)"
       gradientUnits="userSpaceOnUse"
       y2="0"
       x2="0.94999999"
       y1="0"
       x1="0.050000001"><stop
         id="stop90"
         offset="0"
         style="stop-opacity:1;stop-color:#7fcc28" /><stop
         id="stop92"
         offset="1"
         style="stop-opacity:1;stop-color:#00adef" /></linearGradient><clipPath
       id="clipPath104"
       clipPathUnits="userSpaceOnUse"><path
         id="path102"
         d="m 1919.31,465.57 v -98.828 h -68.73 c -42.21,0 -70.51,-28.301 -70.51,-70.527 v -92.524 c 0,-42.226 28.3,-70.507 70.51,-70.507 0,0 61.79,0 63.79,0 41.77,0 70.08,28.281 70.08,70.507 V 465.57 Z m 0.02,-262.777 c 0,-8.047 -3.67,-12.559 -10.88,-13.398 h -49.79 c -9,0 -13.45,4.414 -13.45,13.398 v 94.32 c 0,8.996 4.45,13.489 13.45,13.489 h 60.67 V 202.793" /></clipPath><linearGradient
       id="linearGradient110"
       spreadMethod="pad"
       gradientTransform="matrix(1629.17,0,0,-372.388,134.908,485.571)"
       gradientUnits="userSpaceOnUse"
       y2="0"
       x2="0.94999999"
       y1="0"
       x1="0.050000001"><stop
         id="stop106"
         offset="0"
         style="stop-opacity:1;stop-color:#7fcc28" /><stop
         id="stop108"
         offset="1"
         style="stop-opacity:1;stop-color:#00adef" /></linearGradient><clipPath
       id="clipPath120"
       clipPathUnits="userSpaceOnUse"><path
         id="path118"
         d="m 892.652,189.316 c -8.984,0 -13.488,4.493 -13.488,13.477 v 22.477 h 142.446 v 70.945 c 0,42.226 -28.313,70.527 -70.52,70.527 h -66.973 c -41.789,0 -70.078,-28.301 -70.078,-70.527 v -92.524 c 0,-42.226 28.289,-70.507 70.078,-70.507 h 115.449 v 56.132 z m -13.488,107.797 c 0,8.996 4.504,13.477 13.488,13.477 h 50.34 c 8.977,0 13.477,-4.481 13.477,-13.477 v -20.215 h -77.305 v 20.215" /></clipPath><linearGradient
       id="linearGradient126"
       spreadMethod="pad"
       gradientTransform="matrix(1629.25,0,0,-273.56,136.187,386.743)"
       gradientUnits="userSpaceOnUse"
       y2="0"
       x2="0.94999999"
       y1="0"
       x1="0.050000001"><stop
         id="stop122"
         offset="0"
         style="stop-opacity:1;stop-color:#7fcc28" /><stop
         id="stop124"
         offset="1"
         style="stop-opacity:1;stop-color:#00adef" /></linearGradient><clipPath
       id="clipPath136"
       clipPathUnits="userSpaceOnUse"><path
         id="path134"
         d="m 275.441,202.793 c 0,-8.984 -4.488,-13.477 -13.476,-13.477 h -47.16 c -8.992,0 -13.477,4.493 -13.477,13.477 v 164.312 h -65.14 V 203.691 c 0,-42.226 28.3,-70.527 70.082,-70.527 h 63.781 c 42.226,0 70.531,28.301 70.531,70.527 V 367.105 H 275.441 V 202.793" /></clipPath><linearGradient
       id="linearGradient142"
       spreadMethod="pad"
       gradientTransform="matrix(1629.28,0,0,-273.94,136.187,387.104)"
       gradientUnits="userSpaceOnUse"
       y2="0"
       x2="0.94999999"
       y1="0"
       x1="0.050000001"><stop
         id="stop138"
         offset="0"
         style="stop-opacity:1;stop-color:#7fcc28" /><stop
         id="stop140"
         offset="1"
         style="stop-opacity:1;stop-color:#00adef" /></linearGradient><clipPath
       id="clipPath152"
       clipPathUnits="userSpaceOnUse"><path
         id="path150"
         d="m 427.363,297.484 c 0,8.985 4.496,13.477 13.481,13.477 h 47.164 c 8.984,0 13.472,-4.492 13.472,-13.477 v -164.3 h 65.137 v 163.402 c 0,42.227 -28.297,70.527 -70.074,70.527 h -63.789 c -42.215,0 -70.524,-28.3 -70.524,-70.527 V 133.184 h 65.133 v 164.3" /></clipPath><linearGradient
       id="linearGradient158"
       spreadMethod="pad"
       gradientTransform="matrix(1629.23,0,0,-273.931,136.182,387.114)"
       gradientUnits="userSpaceOnUse"
       y2="0"
       x2="0.94999999"
       y1="0"
       x1="0.050000001"><stop
         id="stop154"
         offset="0"
         style="stop-opacity:1;stop-color:#7fcc28" /><stop
         id="stop156"
         offset="1"
         style="stop-opacity:1;stop-color:#00adef" /></linearGradient><clipPath
       id="clipPath168"
       clipPathUnits="userSpaceOnUse"><path
         id="path166"
         d="m 727.34,465.57 v -98.828 h -68.731 c -42.226,0 -70.519,-28.301 -70.519,-70.527 v -92.524 c 0,-42.226 28.293,-70.507 70.519,-70.507 H 792.465 V 465.57 Z m 0.058,-276.312 h -60.703 c -8.984,0 -13.468,4.551 -13.468,13.535 v 94.32 c 0,8.996 4.484,13.477 13.468,13.477 l 60.703,0.019 V 189.258" /></clipPath><linearGradient
       id="linearGradient174"
       spreadMethod="pad"
       gradientTransform="matrix(1629.21,0,0,-372.388,136.192,485.571)"
       gradientUnits="userSpaceOnUse"
       y2="0"
       x2="0.94999999"
       y1="0"
       x1="0.050000001"><stop
         id="stop170"
         offset="0"
         style="stop-opacity:1;stop-color:#7fcc28" /><stop
         id="stop172"
         offset="1"
         style="stop-opacity:1;stop-color:#00adef" /></linearGradient><clipPath
       id="clipPath184"
       clipPathUnits="userSpaceOnUse"><path
         id="path182"
         d="m 0,203.633 c 0,-42.207 28.3008,-70.508 70.5273,-70.508 h 51.7617 v 56.133 H 78.6094 c -8.9883,0 -13.4805,4.512 -13.4805,13.496 L 65.1406,465.57 H 0.0117188 L 0,203.633" /></clipPath><linearGradient
       id="linearGradient190"
       spreadMethod="pad"
       gradientTransform="matrix(1629.27,0,0,-372.446,136.182,485.571)"
       gradientUnits="userSpaceOnUse"
       y2="0"
       x2="0.94999999"
       y1="0"
       x1="0.050000001"><stop
         id="stop186"
         offset="0"
         style="stop-opacity:1;stop-color:#7fcc28" /><stop
         id="stop188"
         offset="1"
         style="stop-opacity:1;stop-color:#00adef" /></linearGradient></defs><g
     transform="matrix(1.3333333,0,0,-1.3333333,0,62.08)"
     id="g10"><g
       transform="scale(0.1)"
       id="g12"><path
         id="path14"
         style="fill:#00adef;fill-opacity:1;fill-rule:nonzero;stroke:none"
         d="m 2023.57,433.668 h -4.3 v 23.387 h 8.89 c 3.06,0 5.04,-0.606 6.5,-2.051 1.38,-1.328 2.23,-3.387 2.23,-5.449 0,-2.989 -1.47,-5.059 -4.69,-6.524 l 5.13,-9.363 h -4.84 l -4.61,8.66 h -4.31 z m 4.14,12.41 c 2.97,0 4.62,1.367 4.62,3.711 0,2.246 -1.63,3.516 -4.53,3.516 h -4.23 v -7.227 h 4.14" /><path
         id="path16"
         style="fill:#00adef;fill-opacity:1;fill-rule:nonzero;stroke:none"
         d="m 2006.4,445.043 c 0,11.348 9.18,20.527 20.53,20.527 v 0 c 11.3,0 20.5,-9.179 20.5,-20.527 v 0 c 0,-11.328 -9.2,-20.508 -20.5,-20.508 v 0 c -11.35,0 -20.53,9.18 -20.53,20.508 z m 3.75,0 c 0.01,-9.238 7.51,-16.719 16.78,-16.738 v 0 c 9.23,0.019 16.71,7.5 16.73,16.738 v 0 c -0.02,9.25 -7.5,16.73 -16.73,16.738 v 0 c -9.27,-0.008 -16.77,-7.488 -16.78,-16.738 v 0" /><g
         id="g18"><g
           clip-path="url(#clipPath24)"
           id="g20"><path
             id="path32"
             style="fill:url(#linearGradient30);fill-opacity:1;fill-rule:nonzero;stroke:none"
             d="m 1277.9,310.59 h 123.926 v 56.1523 H 1277.9 Z" /></g></g><g
         id="g34"><g
           clip-path="url(#clipPath40)"
           id="g36"><path
             id="path48"
             style="fill:url(#linearGradient46);fill-opacity:1;fill-rule:nonzero;stroke:none"
             d="m 1335.29,189.355 c -8.42,0 -12.82,3.946 -13.38,11.778 h -0.03 v 8.379 c 0,9.004 4.48,13.48 13.5,13.48 l 66.45,0.02 v 51.718 h -71.82 c -41.76,0 -70.08,-28.21 -70.08,-70.433 v -3.887 h 0.08 c 1.45,-40.371 29.28,-67.226 70.37,-67.226 h 71.45 v 56.171 h -66.54" /></g></g><g
         id="g50"><g
           clip-path="url(#clipPath56)"
           id="g52"><path
             id="path64"
             style="fill:url(#linearGradient62);fill-opacity:1;fill-rule:nonzero;stroke:none"
             d="m 1620.85,296.227 c 0,42.214 -28.34,70.515 -70.12,70.515 H 1434.46 V 310.59 h 107.75 c 8.97,0 13.46,-4.481 13.46,-13.477 V 274.73 h -69.1 c -41.75,0 -70.05,-28.21 -70.05,-70.433 v -3.887 h 0.07 c 1.45,-40.371 29.26,-67.226 70.33,-67.226 h 133.93 z m -129,-106.872 c -8.4,0 -12.81,3.946 -13.36,11.778 h -0.03 v 8.379 c 0,9.004 4.48,13.48 13.45,13.48 l 63.79,0.02 v -33.657 h -63.85" /></g></g><g
         id="g66"><g
           clip-path="url(#clipPath72)"
           id="g68"><path
             id="path80"
             style="fill:url(#linearGradient78);fill-opacity:1;fill-rule:nonzero;stroke:none"
             d="m 1712.94,367.113 c -42.23,0 -70.51,-28.3 -70.51,-70.527 V 133.184 h 65.12 v 164.3 c 0,8.985 4.51,13.477 13.48,13.477 h 45.11 v 56.152 h -53.2" /></g></g><g
         id="g82"><g
           clip-path="url(#clipPath88)"
           id="g84"><path
             id="path96"
             style="fill:url(#linearGradient94);fill-opacity:1;fill-rule:nonzero;stroke:none"
             d="m 1043.17,161.055 c 0,-42.227 27.91,-70.6058 69.69,-70.6058 h 55.67 c 9,0 13.45,-4.5508 13.45,-13.5156 v -8.9648 0 c -0.57,-7.8516 -4.96,-11.7969 -13.37,-11.7969 H 1056.52 V 0 h 118.8 c 41.12,0 68.95,26.875 70.41,67.2461 v 4.4531 c 0,42.2068 -28.28,70.4488 -70.03,70.4488 h -53.5 c -8.99,0 -13.48,4.434 -13.48,13.438 v 13.769 l 68.73,0.059 c 42.21,0 70.51,28.301 70.51,70.512 v 56.301 c 0,42.214 -28.3,70.515 -70.51,70.515 h -63.79 c -41.78,0 -70.49,-28.301 -70.49,-70.515 z m 65.59,136.058 c 0,8.996 4.45,13.477 13.44,13.477 h 47.15 c 9,0 13.47,-4.481 13.47,-13.477 v -58.086 c 0,-8.964 -4.47,-13.418 -13.47,-13.418 h -60.59 v 71.504" /></g></g><g
         id="g98"><g
           clip-path="url(#clipPath104)"
           id="g100"><path
             id="path112"
             style="fill:url(#linearGradient110);fill-opacity:1;fill-rule:nonzero;stroke:none"
             d="m 1919.31,465.57 v -98.828 h -68.73 c -42.21,0 -70.51,-28.301 -70.51,-70.527 v -92.524 c 0,-42.226 28.3,-70.507 70.51,-70.507 0,0 61.79,0 63.79,0 41.77,0 70.08,28.281 70.08,70.507 V 465.57 Z m 0.02,-262.777 c 0,-8.047 -3.67,-12.559 -10.88,-13.398 h -49.79 c -9,0 -13.45,4.414 -13.45,13.398 v 94.32 c 0,8.996 4.45,13.489 13.45,13.489 h 60.67 V 202.793" /></g></g><g
         id="g114"><g
           clip-path="url(#clipPath120)"
           id="g116"><path
             id="path128"
             style="fill:url(#linearGradient126);fill-opacity:1;fill-rule:nonzero;stroke:none"
             d="m 892.652,189.316 c -8.984,0 -13.488,4.493 -13.488,13.477 v 22.477 h 142.446 v 70.945 c 0,42.226 -28.313,70.527 -70.52,70.527 h -66.973 c -41.789,0 -70.078,-28.301 -70.078,-70.527 v -92.524 c 0,-42.226 28.289,-70.507 70.078,-70.507 h 115.449 v 56.132 z m -13.488,107.797 c 0,8.996 4.504,13.477 13.488,13.477 h 50.34 c 8.977,0 13.477,-4.481 13.477,-13.477 v -20.215 h -77.305 v 20.215" /></g></g><g
         id="g130"><g
           clip-path="url(#clipPath136)"
           id="g132"><path
             id="path144"
             style="fill:url(#linearGradient142);fill-opacity:1;fill-rule:nonzero;stroke:none"
             d="m 275.441,202.793 c 0,-8.984 -4.488,-13.477 -13.476,-13.477 h -47.16 c -8.992,0 -13.477,4.493 -13.477,13.477 v 164.312 h -65.14 V 203.691 c 0,-42.226 28.3,-70.527 70.082,-70.527 h 63.781 c 42.226,0 70.531,28.301 70.531,70.527 V 367.105 H 275.441 V 202.793" /></g></g><g
         id="g146"><g
           clip-path="url(#clipPath152)"
           id="g148"><path
             id="path160"
             style="fill:url(#linearGradient158);fill-opacity:1;fill-rule:nonzero;stroke:none"
             d="m 427.363,297.484 c 0,8.985 4.496,13.477 13.481,13.477 h 47.164 c 8.984,0 13.472,-4.492 13.472,-13.477 v -164.3 h 65.137 v 163.402 c 0,42.227 -28.297,70.527 -70.074,70.527 h -63.789 c -42.215,0 -70.524,-28.3 -70.524,-70.527 V 133.184 h 65.133 v 164.3" /></g></g><g
         id="g162"><g
           clip-path="url(#clipPath168)"
           id="g164"><path
             id="path176"
             style="fill:url(#linearGradient174);fill-opacity:1;fill-rule:nonzero;stroke:none"
             d="m 727.34,465.57 v -98.828 h -68.731 c -42.226,0 -70.519,-28.301 -70.519,-70.527 v -92.524 c 0,-42.226 28.293,-70.507 70.519,-70.507 H 792.465 V 465.57 Z m 0.058,-276.312 h -60.703 c -8.984,0 -13.468,4.551 -13.468,13.535 v 94.32 c 0,8.996 4.484,13.477 13.468,13.477 l 60.703,0.019 V 189.258" /></g></g><g
         id="g178"><g
           clip-path="url(#clipPath184)"
           id="g180"><path
             id="path192"
             style="fill:url(#linearGradient190);fill-opacity:1;fill-rule:nonzero;stroke:none"
             d="m 0,203.633 c 0,-42.207 28.3008,-70.508 70.5273,-70.508 h 51.7617 v 56.133 H 78.6094 c -8.9883,0 -13.4805,4.512 -13.4805,13.496 L 65.1406,465.57 H 0.0117188 L 0,203.633" /></g></g></g></g></svg>